<svg width="657.9px" height="120.8px" xmlns="http://www.w3.org/2000/svg" viewBox="-78.93753662109373 14.600000000000001 657.8750732421875 120.8" style="background: rgba(0, 0, 0, 0)" preserveAspectRatio="xMidYMid"><defs><linearGradient id="editing-gradient-gradient" x1="0" x2="1" y1="0.5" y2="0.5" gradientUnits="objectBoundingBox"><stop offset="0" stop-color="#0099ff"></stop><stop offset="1" stop-color="#ff00f6"></stop></linearGradient></defs><g><g transform="matrix(1.4,0,0,1.9,-78.8,208.4)"><path d="M 19.5 -57.1 L 5.5 -57.1 L 13.6 -99.3 L 27.7 -99.3 L 19.5 -57.1 Z M 75.2 -55.8 L 75.2 -55.8 L 75.2 -55.8 Q 67.5 -55.8 67.5 -61.8 L 67.5 -61.8 L 67.5 -61.8 Q 67.5 -64.4 68.6 -69.5 L 68.6 -69.5 L 68.6 -69.5 Q 69.7 -74.6 70.1 -76.7 L 70.1 -76.7 L 70.1 -76.7 Q 71 -81.3 71 -82.8 L 71 -82.8 L 71 -82.8 Q 71 -86.1 68.6 -86.1 L 68.6 -86.1 L 68.6 -86.1 Q 67 -86.1 65.4 -83.9 L 65.4 -83.9 L 65.4 -83.9 Q 63.9 -81.7 63.2 -77.2 L 63.2 -77.2 L 59.2 -57.1 L 46.7 -55.8 L 50.2 -73.2 L 50.2 -73.2 Q 50.8 -76.1 51.3 -79.3 L 51.3 -79.3 L 51.3 -79.3 Q 51.8 -82.6 51.8 -83.1 L 51.8 -83.1 L 51.8 -83.1 Q 51.8 -86.1 49.6 -86.1 L 49.6 -86.1 L 49.6 -86.1 Q 48.1 -86.1 46.5 -83.9 L 46.5 -83.9 L 46.5 -83.9 Q 44.9 -81.7 44 -77.2 L 44 -77.2 L 40.1 -57.1 L 27.5 -55.8 L 34.3 -89.7 L 44.7 -91 L 43.6 -84.5 L 43.6 -84.5 Q 45.3 -88 48.3 -89.5 L 48.3 -89.5 L 48.3 -89.5 Q 51.4 -91 56.2 -91 L 56.2 -91 L 56.2 -91 Q 59 -91 60.8 -89.7 L 60.8 -89.7 L 60.8 -89.7 Q 62.5 -88.3 63.1 -86.1 L 63.1 -86.1 L 63.1 -86.1 Q 64.2 -88.4 67 -89.7 L 67 -89.7 L 67 -89.7 Q 69.8 -91 73.2 -91 L 73.2 -91 L 73.2 -91 Q 76.6 -91 78.3 -90.3 L 78.3 -90.3 L 78.3 -90.3 Q 80 -89.5 81 -88.3 L 81 -88.3 L 81 -88.3 Q 82.8 -86.1 82.8 -82 L 82.8 -82 L 82.8 -82 Q 82.8 -77.9 81 -69.6 L 81 -69.6 L 81 -69.6 Q 80.1 -65.5 80.1 -64 L 80.1 -64 L 80.1 -64 Q 80.1 -62.5 81 -61.6 L 81 -61.6 L 81 -61.6 Q 81.9 -60.7 83.2 -60.5 L 83.2 -60.5 L 83.2 -60.5 Q 82.5 -58.4 80.3 -57.1 L 80.3 -57.1 L 80.3 -57.1 Q 78.1 -55.8 75.2 -55.8 Z M 90.9 -59 L 90.9 -59 L 90.9 -59 Q 89.4 -60.7 88.7 -63.3 L 88.7 -63.3 L 88.7 -63.3 Q 88 -65.9 88 -70.2 L 88 -70.2 L 88 -70.2 Q 88 -74.5 89.5 -78.4 L 89.5 -78.4 L 89.5 -78.4 Q 91 -82.3 93.6 -85.1 L 93.6 -85.1 L 93.6 -85.1 Q 99.2 -91 108.2 -91 L 108.2 -91 L 108.2 -91 Q 111.5 -91 113.9 -89.9 L 113.9 -89.9 L 124.8 -91 L 120.1 -66 L 120.1 -66 Q 119.9 -65.3 119.9 -63.9 L 119.9 -63.9 L 119.9 -63.9 Q 119.9 -62.5 120.8 -61.6 L 120.8 -61.6 L 120.8 -61.6 Q 121.6 -60.7 122.9 -60.5 L 122.9 -60.5 L 122.9 -60.5 Q 122.3 -58.4 119.9 -57.1 L 119.9 -57.1 L 119.9 -57.1 Q 117.6 -55.8 115 -55.8 L 115 -55.8 L 115 -55.8 Q 112.3 -55.8 110.6 -56.8 L 110.6 -56.8 L 110.6 -56.8 Q 108.8 -57.8 108.3 -59.4 L 108.3 -59.4 L 108.3 -59.4 Q 107.3 -57.8 105.1 -56.8 L 105.1 -56.8 L 105.1 -56.8 Q 102.9 -55.8 100 -55.8 L 100 -55.8 L 100 -55.8 Q 97.1 -55.8 94.7 -56.6 L 94.7 -56.6 L 94.7 -56.6 Q 92.4 -57.3 90.9 -59 Z M 104.4 -85 L 104.4 -85 L 104.4 -85 Q 103.6 -83.8 103 -81.9 L 103 -81.9 L 103 -81.9 Q 102.4 -79.9 101.3 -74.7 L 101.3 -74.7 L 101.3 -74.7 Q 100.2 -69.5 100.2 -65.8 L 100.2 -65.8 L 100.2 -65.8 Q 100.2 -62.1 100.8 -61 L 100.8 -61 L 100.8 -61 Q 101.4 -59.9 102.4 -59.9 L 102.4 -59.9 L 102.4 -59.9 Q 104.5 -59.9 106 -61.8 L 106 -61.8 L 106 -61.8 Q 107.5 -63.8 108 -67.3 L 108 -67.3 L 111.4 -86 L 111.4 -86 Q 110.1 -87.2 108.5 -87.2 L 108.5 -87.2 L 108.5 -87.2 Q 107 -87.2 106 -86.6 L 106 -86.6 L 106 -86.6 Q 105.1 -86.1 104.4 -85 Z M 132.6 -83.8 L 132.6 -83.8 L 132.6 -83.8 Q 134.7 -86.9 138 -88.9 L 138 -88.9 L 138 -88.9 Q 141.3 -91 145.4 -91 L 145.4 -91 L 145.4 -91 Q 149.4 -91 151.3 -89.7 L 151.3 -89.7 L 163.9 -91 L 159.5 -66.4 L 159.5 -66.4 Q 157.3 -53.9 152.5 -48.9 L 152.5 -48.9 L 152.5 -48.9 Q 148 -44.3 139.2 -44.3 L 139.2 -44.3 L 139.2 -44.3 Q 132.4 -44.3 128.6 -46.4 L 128.6 -46.4 L 128.6 -46.4 Q 124.8 -48.5 124.8 -52 L 124.8 -52 L 124.8 -52 Q 124.8 -54.6 126.7 -56.1 L 126.7 -56.1 L 126.7 -56.1 Q 128.7 -57.7 131.8 -57.7 L 131.8 -57.7 L 131.8 -57.7 Q 134.5 -57.7 136.5 -56.4 L 136.5 -56.4 L 136.5 -56.4 Q 137.7 -55.8 138.3 -54.9 L 138.3 -54.9 L 138.3 -54.9 Q 136.8 -53.6 136.8 -51.5 L 136.8 -51.5 L 136.8 -51.5 Q 136.8 -48.8 139.4 -48.8 L 139.4 -48.8 L 139.4 -48.8 Q 143.7 -48.8 146.1 -58.9 L 146.1 -58.9 L 146.1 -58.9 Q 146.8 -61.6 147.4 -64.4 L 147.4 -64.4 L 147.4 -64.4 Q 144.5 -60.9 138 -60.9 L 138 -60.9 L 138 -60.9 Q 133.5 -60.9 130.8 -63 L 130.8 -63 L 130.8 -63 Q 128.2 -65.2 128.2 -70.3 L 128.2 -70.3 L 128.2 -70.3 Q 128.2 -73.5 129.3 -77.1 L 129.3 -77.1 L 129.3 -77.1 Q 130.4 -80.8 132.6 -83.8 Z M 140.9 -70.1 L 140.9 -70.1 L 140.9 -70.1 Q 140.9 -65.8 143.1 -65.8 L 143.1 -65.8 L 143.1 -65.8 Q 144.7 -65.8 146.1 -67.4 L 146.1 -67.4 L 146.1 -67.4 Q 147.3 -68.8 147.7 -70.8 L 147.7 -70.8 L 151 -87.2 L 151 -87.2 Q 150.7 -87.3 150.4 -87.4 L 150.4 -87.4 L 150.4 -87.4 Q 149.7 -87.7 148.9 -87.7 L 148.9 -87.7 L 148.9 -87.7 Q 145 -87.7 142.7 -81.3 L 142.7 -81.3 L 142.7 -81.3 Q 140.9 -76.3 140.9 -70.1 Z M 192.3 -67.9 L 192.3 -67.9 L 192.3 -67.9 Q 193.9 -66.8 193.9 -64.4 L 193.9 -64.4 L 193.9 -64.4 Q 193.9 -62 192.7 -60.5 L 192.7 -60.5 L 192.7 -60.5 Q 191.4 -58.9 189.5 -57.9 L 189.5 -57.9 L 189.5 -57.9 Q 185.4 -55.8 180.9 -55.8 L 180.9 -55.8 L 180.9 -55.8 Q 176.5 -55.8 173.9 -56.8 L 173.9 -56.8 L 173.9 -56.8 Q 171.3 -57.7 169.6 -59.5 L 169.6 -59.5 L 169.6 -59.5 Q 166.2 -62.9 166.2 -69.1 L 166.2 -69.1 L 166.2 -69.1 Q 166.2 -78.8 171.5 -84.7 L 171.5 -84.7 L 171.5 -84.7 Q 177.1 -91 186.9 -91 L 186.9 -91 L 186.9 -91 Q 193 -91 196 -88.4 L 196 -88.4 L 196 -88.4 Q 198.2 -86.5 198.2 -83.4 L 198.2 -83.4 L 198.2 -83.4 Q 198.2 -72.1 178.8 -72.1 L 178.8 -72.1 L 178.8 -72.1 Q 178.5 -70.5 178.5 -69 L 178.5 -69 L 178.5 -69 Q 178.5 -66.1 179.8 -65 L 179.8 -65 L 179.8 -65 Q 181.1 -63.9 183.6 -63.9 L 183.6 -63.9 L 183.6 -63.9 Q 186 -63.9 188.6 -65 L 188.6 -65 L 188.6 -65 Q 191.2 -66.1 192.3 -67.9 Z M 179.2 -74.9 L 179.2 -74.9 L 179.2 -74.9 Q 183.8 -74.9 186.4 -77.7 L 186.4 -77.7 L 186.4 -77.7 Q 189 -80.4 189 -84.7 L 189 -84.7 L 189 -84.7 Q 189 -86.1 188.5 -86.9 L 188.5 -86.9 L 188.5 -86.9 Q 187.9 -87.7 186.8 -87.7 L 186.8 -87.7 L 186.8 -87.7 Q 185.7 -87.7 184.8 -87.3 L 184.8 -87.3 L 184.8 -87.3 Q 183.9 -86.9 182.9 -85.5 L 182.9 -85.5 L 182.9 -85.5 Q 180.6 -82.3 179.2 -74.9 Z M 219.5 -79.5 L 219.5 -79.5 L 219.5 -79.5 Q 220.4 -81.9 220.4 -84 L 220.4 -84 L 220.4 -84 Q 220.4 -87.7 217.4 -87.7 L 217.4 -87.7 L 217.4 -87.7 Q 215.8 -87.7 214.4 -86.3 L 214.4 -86.3 L 214.4 -86.3 Q 213.1 -84.9 213.1 -83.1 L 213.1 -83.1 L 213.1 -83.1 Q 213.1 -81.8 214.2 -80.8 L 214.2 -80.8 L 214.2 -80.8 Q 215.6 -79.3 219.4 -77 L 219.4 -77 L 219.4 -77 Q 223.2 -74.7 224.6 -72.9 L 224.6 -72.9 L 224.6 -72.9 Q 226.1 -71 226.1 -68.4 L 226.1 -68.4 L 226.1 -68.4 Q 226.1 -65.8 224.8 -63.4 L 224.8 -63.4 L 224.8 -63.4 Q 223.6 -61 221.3 -59.4 L 221.3 -59.4 L 221.3 -59.4 Q 216.5 -55.8 208.8 -55.8 L 208.8 -55.8 L 208.8 -55.8 Q 204.7 -55.8 201.5 -58 L 201.5 -58 L 201.5 -58 Q 198.3 -60.1 198.3 -62.6 L 198.3 -62.6 L 198.3 -62.6 Q 198.3 -65.1 200.1 -66.5 L 200.1 -66.5 L 200.1 -66.5 Q 201.9 -68 204.6 -68 L 204.6 -68 L 204.6 -68 Q 207.3 -68 209 -67 L 209 -67 L 209 -67 Q 208.1 -64.9 208.1 -63.5 L 208.1 -63.5 L 208.1 -63.5 Q 208.1 -59.3 211.7 -59.3 L 211.7 -59.3 L 211.7 -59.3 Q 213.3 -59.3 214.3 -60.2 L 214.3 -60.2 L 214.3 -60.2 Q 215.3 -61.2 215.3 -62.8 L 215.3 -62.8 L 215.3 -62.8 Q 215.3 -66.1 209.8 -69.6 L 209.8 -69.6 L 209.8 -69.6 Q 205.3 -72.5 204.3 -73.7 L 204.3 -73.7 L 204.3 -73.7 Q 202.6 -75.7 202.6 -78.3 L 202.6 -78.3 L 202.6 -78.3 Q 202.6 -80.8 203.8 -83.3 L 203.8 -83.3 L 203.8 -83.3 Q 205 -85.7 207.2 -87.4 L 207.2 -87.4 L 207.2 -87.4 Q 211.9 -91 220 -91 L 220 -91 L 220 -91 Q 224.2 -91 226.7 -89.3 L 226.7 -89.3 L 226.7 -89.3 Q 229.1 -87.7 229.1 -84.9 L 229.1 -84.9 L 229.1 -84.9 Q 229.1 -82 227.4 -80.4 L 227.4 -80.4 L 227.4 -80.4 Q 225.7 -78.8 222.7 -78.8 L 222.7 -78.8 L 222.7 -78.8 Q 220.6 -78.8 219.5 -79.5 Z M 270.6 -77.7 L 283.5 -78.8 L 283.5 -78.8 Q 278.9 -68.7 278.9 -57 L 278.9 -57 L 278.9 -57 Q 277.2 -55.8 274.7 -55.8 L 274.7 -55.8 L 274.7 -55.8 Q 272.1 -55.8 270.5 -57 L 270.5 -57 L 270.5 -57 Q 268.9 -58.2 268.6 -59.4 L 268.6 -59.4 L 268.6 -59.4 Q 267 -57.7 264.4 -56.8 L 264.4 -56.8 L 264.4 -56.8 Q 261.8 -55.8 259.1 -55.8 L 259.1 -55.8 L 259.1 -55.8 Q 256.3 -55.8 253.9 -56.7 L 253.9 -56.7 L 253.9 -56.7 Q 251.5 -57.6 249.7 -59.6 L 249.7 -59.6 L 249.7 -59.6 Q 245.6 -63.9 245.6 -72.2 L 245.6 -72.2 L 245.6 -72.2 Q 245.6 -85 252.4 -92.7 L 252.4 -92.7 L 252.4 -92.7 Q 259.5 -100.6 272 -100.6 L 272 -100.6 L 272 -100.6 Q 280.6 -100.6 283.7 -96.1 L 283.7 -96.1 L 283.7 -96.1 Q 284.6 -94.7 284.6 -93 L 284.6 -93 L 284.6 -93 Q 284.6 -91.3 283.9 -89.9 L 283.9 -89.9 L 283.9 -89.9 Q 283.2 -88.4 282 -87.3 L 282 -87.3 L 282 -87.3 Q 279.2 -84.7 275.9 -84.7 L 275.9 -84.7 L 275.9 -84.7 Q 274.5 -84.7 273.2 -85.2 L 273.2 -85.2 L 273.2 -85.2 Q 273.5 -87.1 273.5 -89.3 L 273.5 -89.3 L 273.5 -89.3 Q 273.5 -91.6 273.3 -92.6 L 273.3 -92.6 L 273.3 -92.6 Q 273.2 -93.6 272.8 -94.5 L 272.8 -94.5 L 272.8 -94.5 Q 272 -96.2 270.1 -96.2 L 270.1 -96.2 L 270.1 -96.2 Q 268.3 -96.2 266.3 -94.2 L 266.3 -94.2 L 266.3 -94.2 Q 264.3 -92.3 262.7 -89.1 L 262.7 -89.1 L 262.7 -89.1 Q 259.2 -81.9 259.2 -73.3 L 259.2 -73.3 L 259.2 -73.3 Q 259.2 -69.3 260.7 -66.5 L 260.7 -66.5 L 260.7 -66.5 Q 262.4 -63.4 265.3 -63.4 L 265.3 -63.4 L 265.3 -63.4 Q 266.3 -63.4 267.2 -63.9 L 267.2 -63.9 L 267.2 -63.9 Q 268.2 -64.4 268.6 -64.8 L 268.6 -64.8 L 270.6 -77.7 Z M 289.5 -59 L 289.5 -59 L 289.5 -59 Q 288 -60.7 287.3 -63.3 L 287.3 -63.3 L 287.3 -63.3 Q 286.6 -65.9 286.6 -70.2 L 286.6 -70.2 L 286.6 -70.2 Q 286.6 -74.5 288.1 -78.4 L 288.1 -78.4 L 288.1 -78.4 Q 289.6 -82.3 292.2 -85.1 L 292.2 -85.1 L 292.2 -85.1 Q 297.7 -91 306.8 -91 L 306.8 -91 L 306.8 -91 Q 310.1 -91 312.5 -89.9 L 312.5 -89.9 L 323.4 -91 L 318.7 -66 L 318.7 -66 Q 318.5 -65.3 318.5 -63.9 L 318.5 -63.9 L 318.5 -63.9 Q 318.5 -62.5 319.3 -61.6 L 319.3 -61.6 L 319.3 -61.6 Q 320.2 -60.7 321.5 -60.5 L 321.5 -60.5 L 321.5 -60.5 Q 320.8 -58.4 318.5 -57.1 L 318.5 -57.1 L 318.5 -57.1 Q 316.2 -55.8 313.6 -55.8 L 313.6 -55.8 L 313.6 -55.8 Q 310.9 -55.8 309.2 -56.8 L 309.2 -56.8 L 309.2 -56.8 Q 307.4 -57.8 306.9 -59.4 L 306.9 -59.4 L 306.9 -59.4 Q 305.9 -57.8 303.7 -56.8 L 303.7 -56.8 L 303.7 -56.8 Q 301.5 -55.8 298.6 -55.8 L 298.6 -55.8 L 298.6 -55.8 Q 295.7 -55.8 293.3 -56.6 L 293.3 -56.6 L 293.3 -56.6 Q 291 -57.3 289.5 -59 Z M 303 -85 L 303 -85 L 303 -85 Q 302.2 -83.8 301.6 -81.9 L 301.6 -81.9 L 301.6 -81.9 Q 300.9 -79.9 299.9 -74.7 L 299.9 -74.7 L 299.9 -74.7 Q 298.8 -69.5 298.8 -65.8 L 298.8 -65.8 L 298.8 -65.8 Q 298.8 -62.1 299.4 -61 L 299.4 -61 L 299.4 -61 Q 300 -59.9 301 -59.9 L 301 -59.9 L 301 -59.9 Q 303.1 -59.9 304.6 -61.8 L 304.6 -61.8 L 304.6 -61.8 Q 306.1 -63.8 306.6 -67.3 L 306.6 -67.3 L 310 -86 L 310 -86 Q 308.7 -87.2 307.1 -87.2 L 307.1 -87.2 L 307.1 -87.2 Q 305.6 -87.2 304.6 -86.6 L 304.6 -86.6 L 304.6 -86.6 Q 303.7 -86.1 303 -85 Z M 342.2 -60.6 L 342.2 -60.6 L 342.2 -60.6 Q 340.2 -55.8 333.8 -55.8 L 333.8 -55.8 L 333.8 -55.8 Q 330.6 -55.8 328.6 -58 L 328.6 -58 L 328.6 -58 Q 326.9 -59.9 326.9 -62 L 326.9 -62 L 326.9 -62 Q 326.9 -66.8 329.2 -77.3 L 329.2 -77.3 L 333.8 -101.9 L 346.8 -103.2 L 340.6 -70.8 L 340.6 -70.8 Q 339.5 -66 339.5 -64.4 L 339.5 -64.4 L 339.5 -64.4 Q 339.5 -60.7 342.2 -60.6 Z M 362.9 -60.6 L 362.9 -60.6 L 362.9 -60.6 Q 360.9 -55.8 354.6 -55.8 L 354.6 -55.8 L 354.6 -55.8 Q 351.4 -55.8 349.3 -58 L 349.3 -58 L 349.3 -58 Q 347.7 -59.9 347.7 -62 L 347.7 -62 L 347.7 -62 Q 347.7 -66.8 349.9 -77.3 L 349.9 -77.3 L 354.6 -101.9 L 367.6 -103.2 L 361.4 -70.8 L 361.4 -70.8 Q 360.3 -66 360.3 -64.4 L 360.3 -64.4 L 360.3 -64.4 Q 360.3 -60.7 362.9 -60.6 Z M 394.3 -67.9 L 394.3 -67.9 L 394.3 -67.9 Q 395.9 -66.8 395.9 -64.4 L 395.9 -64.4 L 395.9 -64.4 Q 395.9 -62 394.6 -60.5 L 394.6 -60.5 L 394.6 -60.5 Q 393.4 -58.9 391.4 -57.9 L 391.4 -57.9 L 391.4 -57.9 Q 387.3 -55.8 382.9 -55.8 L 382.9 -55.8 L 382.9 -55.8 Q 378.5 -55.8 375.9 -56.8 L 375.9 -56.8 L 375.9 -56.8 Q 373.3 -57.7 371.6 -59.5 L 371.6 -59.5 L 371.6 -59.5 Q 368.2 -62.9 368.2 -69.1 L 368.2 -69.1 L 368.2 -69.1 Q 368.2 -78.8 373.5 -84.7 L 373.5 -84.7 L 373.5 -84.7 Q 379.1 -91 388.9 -91 L 388.9 -91 L 388.9 -91 Q 395 -91 398 -88.4 L 398 -88.4 L 398 -88.4 Q 400.2 -86.5 400.2 -83.4 L 400.2 -83.4 L 400.2 -83.4 Q 400.2 -72.1 380.8 -72.1 L 380.8 -72.1 L 380.8 -72.1 Q 380.5 -70.5 380.5 -69 L 380.5 -69 L 380.5 -69 Q 380.5 -66.1 381.8 -65 L 381.8 -65 L 381.8 -65 Q 383.1 -63.9 385.6 -63.9 L 385.6 -63.9 L 385.6 -63.9 Q 388 -63.9 390.6 -65 L 390.6 -65 L 390.6 -65 Q 393.2 -66.1 394.3 -67.9 Z M 381.2 -74.9 L 381.2 -74.9 L 381.2 -74.9 Q 385.7 -74.9 388.4 -77.7 L 388.4 -77.7 L 388.4 -77.7 Q 391 -80.4 391 -84.7 L 391 -84.7 L 391 -84.7 Q 391 -86.1 390.4 -86.9 L 390.4 -86.9 L 390.4 -86.9 Q 389.9 -87.7 388.8 -87.7 L 388.8 -87.7 L 388.8 -87.7 Q 387.7 -87.7 386.8 -87.3 L 386.8 -87.3 L 386.8 -87.3 Q 385.9 -86.9 384.9 -85.5 L 384.9 -85.5 L 384.9 -85.5 Q 382.5 -82.3 381.2 -74.9 Z M 422.4 -75.1 L 422.4 -75.1 L 422.4 -75.1 Q 424.7 -79.2 424.7 -83.3 L 424.7 -83.3 L 424.7 -83.3 Q 424.7 -86.1 422.7 -86.1 L 422.7 -86.1 L 422.7 -86.1 Q 421.2 -86.1 419.6 -83.4 L 419.6 -83.4 L 419.6 -83.4 Q 417.9 -80.8 417.4 -77.4 L 417.4 -77.4 L 414.1 -57.1 L 400.8 -55.8 L 407.4 -89.7 L 417.9 -91 L 416.8 -84.5 L 416.8 -84.5 Q 419.9 -91 427 -91 L 427 -91 L 427 -91 Q 430.7 -91 432.7 -89.1 L 432.7 -89.1 L 432.7 -89.1 Q 434.7 -87.2 434.7 -83.2 L 434.7 -83.2 L 434.7 -83.2 Q 434.7 -79.3 432.1 -76.8 L 432.1 -76.8 L 432.1 -76.8 Q 429.5 -74.3 425.1 -74.3 L 425.1 -74.3 L 425.1 -74.3 Q 423.2 -74.3 422.4 -75.1 Z M 456.1 -64.3 L 456.1 -64.3 L 456.1 -64.3 Q 452.8 -60.9 446.7 -60.9 L 446.7 -60.9 L 446.7 -60.9 Q 439.1 -60.9 437.5 -66.4 L 437.5 -66.4 L 437.5 -66.4 Q 436.9 -68.1 436.9 -69.9 L 436.9 -69.9 L 436.9 -69.9 Q 436.9 -71.8 437.3 -73.7 L 437.3 -73.7 L 440.3 -89.7 L 453.3 -91 L 449.8 -72.4 L 449.8 -72.4 Q 449.7 -71.5 449.5 -70.6 L 449.5 -70.6 L 449.5 -70.6 Q 449.3 -69.7 449.3 -68.8 L 449.3 -68.8 L 449.3 -68.8 Q 449.3 -67.9 449.6 -67.3 L 449.6 -67.3 L 449.6 -67.3 Q 449.9 -66.7 450.4 -66.3 L 450.4 -66.3 L 450.4 -66.3 Q 451.2 -65.8 452.5 -65.8 L 452.5 -65.8 L 452.5 -65.8 Q 453.9 -65.8 455.1 -67.4 L 455.1 -67.4 L 455.1 -67.4 Q 456.3 -69.1 456.8 -72 L 456.8 -72 L 460.4 -89.7 L 473 -91 L 468.2 -65.8 L 468.2 -65.8 Q 465.8 -53.6 460.9 -48.7 L 460.9 -48.7 L 460.9 -48.7 Q 458.4 -46.2 455.2 -45.2 L 455.2 -45.2 L 455.2 -45.2 Q 452 -44.2 447.8 -44.2 L 447.8 -44.2 L 447.8 -44.2 Q 441.1 -44.2 437.3 -46.3 L 437.3 -46.3 L 437.3 -46.3 Q 433.4 -48.4 433.4 -52 L 433.4 -52 L 433.4 -52 Q 433.4 -54.6 435.4 -56.1 L 435.4 -56.1 L 435.4 -56.1 Q 437.4 -57.6 440.5 -57.6 L 440.5 -57.6 L 440.5 -57.6 Q 443.2 -57.6 445.2 -56.4 L 445.2 -56.4 L 445.2 -56.4 Q 446.4 -55.7 447 -54.8 L 447 -54.8 L 447 -54.8 Q 445.5 -53.6 445.5 -51.4 L 445.5 -51.4 L 445.5 -51.4 Q 445.5 -48.6 448.1 -48.6 L 448.1 -48.6 L 448.1 -48.6 Q 452.3 -48.6 454.7 -58.4 L 454.7 -58.4 L 454.7 -58.4 Q 455.4 -61.2 456.1 -64.3 Z" fill="url(#editing-gradient-gradient)"></path></g></g><style>text {
  font-size: 64px;
  font-family: Arial Black;
  dominant-baseline: central;
  text-anchor: middle;
}</style></svg>